<svg width="34" height="25" viewBox="0 0 34 25" fill="none" xmlns="http://www.w3.org/2000/svg">
<g opacity="0.5">
<path d="M30.6 0H3.39999C1.52999 0 0 1.40625 0 3.125V21.875C0 23.5937 1.52999 25 3.39999 25H30.6C32.47 25 34 23.5937 34 21.875V3.125C34 1.40625 32.47 0 30.6 0ZM29.92 6.64062L18.802 13.0312C17.6969 13.6719 16.3029 13.6719 15.198 13.0312L4.07999 6.64062C3.65499 6.39062 3.39999 5.96875 3.39999 5.51562C3.39999 4.46875 4.64099 3.84375 5.60999 4.39062L17 10.9375L28.39 4.39062C29.3589 3.84375 30.6 4.46875 30.6 5.51562C30.6 5.96875 30.3449 6.39062 29.92 6.64062Z" fill="#030303"/>
</g>
</svg>
