<svg width="26" height="26" viewBox="0 0 26 26" fill="none" xmlns="http://www.w3.org/2000/svg">
<g opacity="0.5">
<path d="M13.0032 0H12.9968C5.82889 0 1.70575e-05 5.83049 1.70575e-05 13C-0.00443397 15.7381 0.86232 18.4066 2.47489 20.6196L0.854766 25.4491L5.85163 23.8517C7.97123 25.2579 10.4596 26.0055 13.0032 26C20.1711 26 26 20.1678 26 13C26 5.83212 20.1711 0 13.0032 0Z" fill="#030303"/>
<path d="M20.5674 18.3577C20.2539 19.2434 19.0091 19.978 18.0163 20.1924C17.337 20.337 16.4497 20.4524 13.463 19.2141C9.64264 17.6314 7.1824 13.7493 6.99064 13.4974C6.80703 13.2455 5.4469 11.4418 5.4469 9.5763C5.4469 7.7108 6.39427 6.80243 6.77614 6.41243C7.08977 6.0923 7.60814 5.94604 8.1054 5.94604C8.26627 5.94604 8.4109 5.95417 8.5409 5.96067C8.92277 5.97693 9.11451 5.99967 9.3664 6.60255C9.68001 7.35817 10.4438 9.22367 10.5348 9.41542C10.6274 9.60717 10.72 9.86717 10.59 10.119C10.4681 10.379 10.3609 10.4944 10.1691 10.7154C9.97739 10.9364 9.7954 11.1054 9.60364 11.3427C9.42814 11.549 9.2299 11.77 9.4509 12.1519C9.6719 12.5257 10.4356 13.772 11.5601 14.773C13.0113 16.065 14.1877 16.4777 14.6087 16.6531C14.9223 16.7831 15.296 16.7523 15.5251 16.5086C15.816 16.195 16.1751 15.675 16.5407 15.163C16.8007 14.7957 17.129 14.7503 17.4734 14.8803C17.8244 15.0021 19.6819 15.9203 20.0637 16.1104C20.4457 16.3021 20.6974 16.3931 20.7901 16.554C20.8811 16.715 20.8811 17.4706 20.5674 18.3577Z" fill="#FAFAFA"/>
</g>
</svg>
